<?xml version="1.0" encoding="utf-8"?>
<!-- Generator: Adobe Illustrator 25.2.3, SVG Export Plug-In . SVG Version: 6.00 Build 0)  -->
<svg version="1.1" id="Warstwa_1" xmlns="http://www.w3.org/2000/svg" xmlns:xlink="http://www.w3.org/1999/xlink" x="0px" y="0px"
	 viewBox="0 0 631.3 102" style="enable-background:new 0 0 631.3 102;" xml:space="preserve">
<style type="text/css">
	.st0{display:none;}
	.st1{display:inline;fill:#EC6D05;}
	.st2{display:inline;fill:url(#SVGID_1_);}
	.st3{display:inline;fill:#7D4E4C;}
	.st4{display:inline;fill:#FFE63B;}
	.st5{display:inline;fill:url(#SVGID_2_);}
	.st6{display:inline;fill:#722332;}
	.st7{display:inline;fill:url(#SVGID_3_);}
	.st8{display:none;fill:url(#SVGID_4_);}
	.st9{fill:#12120F;}
	.st10{fill:#A01916;}
	.st11{fill:#E73134;}
	.st12{fill:#FFF03E;}
	.st13{enable-background:new    ;}
</style>
<g id="syg">
	<g class="st0">
		<path class="st1" d="M47.8,3.3c6.6,0,10.1,0.9,12.1,2c0.4,0.2,0.8,0.1,1-0.3l1.6-3.2c0.3-0.5-0.1-1.1-0.7-1.1H32.1
			c-0.3,0-0.5,0.2-0.7,0.4L29.9,4c-0.3,0.6,0.2,1.2,0.8,1.1C35.1,4.1,41.8,3.3,47.8,3.3z"/>
		
			<linearGradient id="SVGID_1_" gradientUnits="userSpaceOnUse" x1="27" y1="95.75" x2="59.7592" y2="95.75" gradientTransform="matrix(1 0 0 -1 0 104)">
			<stop  offset="2.386850e-06" style="stop-color:#722332"/>
			<stop  offset="0.1148" style="stop-color:#722331"/>
			<stop  offset="0.2149" style="stop-color:#74222E"/>
			<stop  offset="0.3094" style="stop-color:#772028"/>
			<stop  offset="0.4005" style="stop-color:#7B1E20"/>
			<stop  offset="0.4885" style="stop-color:#801A15"/>
			<stop  offset="0.5317" style="stop-color:#83170F"/>
			<stop  offset="0.6344" style="stop-color:#8B1F16"/>
			<stop  offset="0.8301" style="stop-color:#A0342C"/>
			<stop  offset="1" style="stop-color:#B54C49"/>
		</linearGradient>
		<path class="st2" d="M59.7,7.4L59.7,7.4c0.2-0.4,0.1-0.8-0.3-1c-1.7-0.9-5-1.9-11.2-1.9h-0.3c-7.1,0-14.9,1.2-19.1,2.4
			c-0.2,0.1-0.4,0.2-0.5,0.4l-1.2,2.3c-0.2,0.4-0.1,0.8,0.3,1c1.3,0.8,3,1.4,5,1.4c1.4,0,2.9-0.3,4.3-1l1.3-0.6
			c4.6-2.2,11-4.2,15-4.2c2,0,3.9,0.5,5.6,1.5C59,7.9,59.5,7.8,59.7,7.4z"/>
		<path class="st3" d="M25.7,10.8c0.2,0.1,0.3,0.2,0.5,0.3C26,11.1,25.8,10.9,25.7,10.8z"/>
		<path class="st4" d="M58.5,9.8c0.2-0.3,0.1-0.8-0.3-1c-5.6-3.3-13.7-0.2-21,3.2c-4.2,1.9-7.8,1-10.3-0.4c-0.4-0.2-0.8-0.1-1,0.3
			L24,15.7c-0.2,0.4,0,0.9,0.4,1.1c1.8,0.5,4.5,0.6,8.7-0.6c9-2.4,17-1,20.8,0.9c0.4,0.2,0.8,0,1-0.3L58.5,9.8z"/>
		
			<linearGradient id="SVGID_2_" gradientUnits="userSpaceOnUse" x1="13.2755" y1="70.4734" x2="24.9978" y2="70.4734" gradientTransform="matrix(1 0 0 -1 0 104)">
			<stop  offset="2.386850e-06" style="stop-color:#722332"/>
			<stop  offset="0.1148" style="stop-color:#722331"/>
			<stop  offset="0.2149" style="stop-color:#74222E"/>
			<stop  offset="0.3094" style="stop-color:#772028"/>
			<stop  offset="0.4005" style="stop-color:#7B1E20"/>
			<stop  offset="0.4885" style="stop-color:#801A15"/>
			<stop  offset="0.5317" style="stop-color:#83170F"/>
			<stop  offset="0.6344" style="stop-color:#8B1F16"/>
			<stop  offset="0.8301" style="stop-color:#A0342C"/>
			<stop  offset="1" style="stop-color:#B54C49"/>
		</linearGradient>
		<path class="st5" d="M22.1,33.7c-1.2-0.9-2.8-2.4-4.3-3.9c-0.4-0.4-1-0.3-1.2,0.2l-3.3,6.4c-0.3,0.5,0.1,1.1,0.7,1.1h10.2
			c0.7,0,1-0.8,0.6-1.3C24.1,35.3,23.2,34.5,22.1,33.7z"/>
		<path class="st6" d="M42.7,34.3c0.7,0.7,1.3,1.3,1.8,1.9c0.1,0.2,0.4,0.1,0.5-0.1l1-1.9c0.1-0.2,0-0.4-0.3-0.4h-2.9
			C42.6,33.8,42.5,34.1,42.7,34.3z"/>
		<path class="st4" d="M39.5,33.4l-1.1-0.9c-0.4-0.3-0.9-0.2-1.2,0.3L37,33.4c-0.1,0.3-0.4,0.4-0.7,0.4h-8.9c-0.6,0-1.1-0.3-1.5-0.8
			c-0.3-0.5-0.4-1.1-0.2-1.6l2-4.6c0.1-0.4,0-0.8-0.4-0.9c-2.3-1.2-4.3-2.4-5.8-3.5c-0.4-0.3-0.9-0.1-1.1,0.3l-2.5,4.8
			c-0.1,0.3-0.1,0.6,0.1,0.9c1.6,1.6,3.5,3.4,4.8,4.5c1.8,1.4,3.2,2.9,4.1,4.3c0.1,0.2,0.4,0.3,0.6,0.3h14.6c0.7,0,1-0.8,0.5-1.3
			C42,35.4,41,34.6,39.5,33.4z"/>
		
			<linearGradient id="SVGID_3_" gradientUnits="userSpaceOnUse" x1="21.571" y1="83.5608" x2="53.9058" y2="83.5608" gradientTransform="matrix(1 0 0 -1 0 104)">
			<stop  offset="2.386850e-06" style="stop-color:#722332"/>
			<stop  offset="0.1148" style="stop-color:#722331"/>
			<stop  offset="0.2149" style="stop-color:#74222E"/>
			<stop  offset="0.3094" style="stop-color:#772028"/>
			<stop  offset="0.4005" style="stop-color:#7B1E20"/>
			<stop  offset="0.4885" style="stop-color:#801A15"/>
			<stop  offset="0.5317" style="stop-color:#83170F"/>
			<stop  offset="0.6344" style="stop-color:#8B1F16"/>
			<stop  offset="0.8301" style="stop-color:#A0342C"/>
			<stop  offset="1" style="stop-color:#B54C49"/>
		</linearGradient>
		<path class="st7" d="M44,20.4h7.5H53c0.1,0,0.2-0.1,0.3-0.2l0.6-1.4c0.1-0.1,0-0.3-0.1-0.4c-2-1-5.4-2.3-9.7-2.3
			c-2.7,0-7.6,0.4-10.6,1.2c-2.4,0.6-4.5,1-6.3,1c-1.3,0-2.5-0.2-3.5-0.6c-0.3-0.1-0.7,0-0.9,0.4l-1,2c-0.2,0.3-0.1,0.7,0.2,1
			c1.6,1.2,3.9,2.5,6,3.6c0.4,0.2,0.9,0,1.1-0.4l1.4-3.2c0.1-0.3,0.5-0.7,0.8-0.7h7.1H44z"/>
	</g>
	
		<linearGradient id="SVGID_4_" gradientUnits="userSpaceOnUse" x1="46.1" y1="71.4373" x2="46.1" y2="84.0047" gradientTransform="matrix(1 0 0 -1 0 104)">
		<stop  offset="2.386850e-06" style="stop-color:#000000"/>
		<stop  offset="0.3518" style="stop-color:#111111"/>
		<stop  offset="0.7379" style="stop-color:#333232"/>
		<stop  offset="0.9926" style="stop-color:#424241"/>
	</linearGradient>
	<path class="st8" d="M52.1,31.7v-0.6c0-0.8-1-1.2-1.5-0.6l-1.5,1.7c-0.2,0.2-0.4,0.3-0.6,0.3h-7.4c-0.3,0-0.5-0.1-0.7-0.3l-2.1-2.8
		c-0.4-0.5-1.2-0.4-1.5,0.1l-1.2,2.6c-0.1,0.3-0.4,0.5-0.8,0.5h-7.7c-0.6,0-1-0.6-0.8-1.2l4.3-10.9c0.1-0.3,0.4-0.5,0.8-0.5h12.4
		c0.3,0,0.6,0.1,0.7,0.4l2.1,3.3c0.3,0.5,1,0.5,1.4,0.1l2.9-3.4c0.2-0.2,0.4-0.3,0.6-0.3h13.6c0.6,0,1,0.6,0.8,1.2L61.8,32
		c-0.1,0.3-0.4,0.5-0.8,0.5h-8.1C52.5,32.6,52.1,32.2,52.1,31.7z"/>
	<path class="st9" d="M96.6,41.5"/>
	<path class="st10" d="M107,66.2l7.6-18.3c0.2-0.4,0.5-0.6,0.8-0.6h37.2c0.3,0,0.6,0.4,0.4,0.7l-1.2,2.9c-0.1,0.2-0.2,0.3-0.4,0.3
		h-21.8c-0.2,0-0.3,0.1-0.4,0.3l-1.2,2.8c-0.2,0.3,0.1,0.8,0.4,0.8h16.2c0.3,0,0.6,0.4,0.4,0.7l-1.2,2.7c-0.1,0.2-0.2,0.3-0.4,0.3
		h-17.1c-0.2,0-0.3,0.1-0.4,0.3l-1.6,3.4c-0.2,0.3,0.1,0.8,0.4,0.8h21.2c0.3,0,0.6,0.4,0.4,0.7l-1.1,2.6c-0.1,0.2-0.2,0.3-0.4,0.3
		h-37.4C107.1,66.9,106.8,66.5,107,66.2z"/>
	<path class="st10" d="M483.7,66.2l7.6-18.3c0.2-0.4,0.5-0.6,0.8-0.6h37.2c0.3,0,0.6,0.4,0.4,0.7l-1.2,2.9c-0.1,0.2-0.2,0.3-0.4,0.3
		h-21.8c-0.2,0-0.3,0.1-0.4,0.3l-1.2,2.8c-0.2,0.3,0.1,0.8,0.4,0.8h16.2c0.3,0,0.6,0.4,0.4,0.7l-1.2,2.7c-0.1,0.2-0.2,0.3-0.4,0.3
		H503c-0.2,0-0.3,0.1-0.4,0.3l-1.6,3.4c-0.2,0.3,0.1,0.8,0.4,0.8h21.2c0.3,0,0.6,0.4,0.4,0.7l-1.1,2.6c-0.1,0.2-0.2,0.3-0.4,0.3
		h-37.4C483.8,66.9,483.6,66.5,483.7,66.2z"/>
	<path class="st10" d="M183.9,51.5l-6.3,15.1c-0.1,0.2-0.2,0.3-0.4,0.3h-15.3c-0.3,0-0.6-0.4-0.4-0.7l6-14.2
		c0.1-0.3-0.1-0.7-0.4-0.7h-11.7c-0.3,0-0.6-0.4-0.4-0.7l1.2-2.9c0.1-0.2,0.2-0.3,0.4-0.3H198c0.3,0,0.6,0.4,0.4,0.7l-1.2,2.9
		c-0.1,0.2-0.2,0.3-0.4,0.3h-12.6C184.1,51.2,183.9,51.3,183.9,51.5z"/>
	<path class="st10" d="M608,51.5l-6.3,15.1c-0.1,0.2-0.2,0.3-0.4,0.3H586c-0.3,0-0.6-0.4-0.4-0.7l6-14.2c0.1-0.3-0.1-0.7-0.4-0.7
		h-11.7c-0.3,0-0.6-0.4-0.4-0.7l1.2-2.9c0.1-0.2,0.2-0.3,0.4-0.3h41.5c0.3,0,0.6,0.4,0.4,0.7l-1.2,2.9c-0.1,0.2-0.2,0.3-0.4,0.3
		h-12.6C608.2,51.2,608.1,51.3,608,51.5z"/>
	<path class="st10" d="M246.7,56.1c0.6-1.5,1.8-2.7,3.4-3.8c1.6-1.1,3.6-2,6-2.8c2.4-0.7,5.2-1.3,8.4-1.7c3.2-0.4,6.7-0.6,10.5-0.6
		s7.2,0.2,10,0.6c2.9,0.4,5.2,0.9,7,1.7c1.8,0.7,3,1.7,3.7,2.8c0.6,1.1,0.7,2.4,0,3.8l-0.9,2c-0.6,1.4-1.8,2.7-3.4,3.8
		s-3.6,2-6.1,2.8c-2.4,0.7-5.3,1.3-8.5,1.7c-3.2,0.4-6.7,0.6-10.5,0.6s-7.2-0.2-10.1-0.6s-5.2-0.9-7-1.7c-1.8-0.7-3-1.7-3.7-2.8
		c-0.6-1.1-0.7-2.4,0-3.8L246.7,56.1z M269,61.9c0.8,0,1.6-0.1,2.6-0.2c1-0.1,1.9-0.3,2.8-0.6s1.8-0.7,2.5-1.1
		c0.7-0.5,1.2-1.1,1.5-1.8l1-2.2c0.3-0.7,0.2-1.3-0.2-1.8c-0.4-0.5-0.9-0.9-1.7-1.1c-0.7-0.3-1.5-0.5-2.4-0.6s-1.7-0.2-2.5-0.2
		s-1.6,0.1-2.6,0.2c-1,0.1-1.9,0.3-2.8,0.6s-1.8,0.7-2.5,1.1c-0.7,0.5-1.2,1.1-1.5,1.8l-1,2.2c-0.2,0.5-0.2,0.9-0.1,1.3
		c0.1,0.4,0.4,0.7,0.7,1c0.3,0.3,0.7,0.5,1.2,0.7s1,0.3,1.6,0.5c0.6,0.1,1.1,0.2,1.7,0.3C268,61.9,268.5,61.9,269,61.9z"/>
	<path class="st10" d="M395.4,56.2c0.6-1.5,1.8-2.7,3.4-3.8s3.6-2,6-2.8c2.4-0.7,5.2-1.3,8.4-1.7c3.2-0.4,6.7-0.6,10.5-0.6
		s7.2,0.2,10,0.6c2.9,0.4,5.2,0.9,7,1.7c1.8,0.7,3,1.7,3.7,2.8c0.6,1.1,0.7,2.4,0,3.8l-0.9,2c-0.6,1.4-1.8,2.7-3.4,3.8
		s-3.6,2-6.1,2.8c-2.4,0.7-5.3,1.3-8.5,1.7c-3.2,0.4-6.7,0.6-10.5,0.6s-7.2-0.2-10.1-0.6s-5.2-0.9-7-1.7c-1.8-0.7-3-1.7-3.7-2.8
		c-0.6-1.1-0.7-2.4,0-3.8L395.4,56.2z M417.7,62c0.8,0,1.6-0.1,2.6-0.2c1-0.1,1.9-0.3,2.8-0.6s1.8-0.7,2.5-1.1
		c0.7-0.5,1.2-1.1,1.5-1.8l1-2.2c0.3-0.7,0.2-1.3-0.2-1.8c-0.4-0.5-0.9-0.9-1.7-1.1c-0.7-0.3-1.5-0.5-2.4-0.6s-1.7-0.2-2.5-0.2
		s-1.6,0.1-2.6,0.2c-1,0.1-1.9,0.3-2.8,0.6s-1.8,0.7-2.5,1.1c-0.7,0.5-1.2,1.1-1.5,1.8l-1,2.2c-0.2,0.5-0.2,0.9-0.1,1.3
		c0.1,0.4,0.4,0.7,0.7,1c0.3,0.3,0.7,0.5,1.2,0.7s1,0.3,1.6,0.5c0.6,0.1,1.1,0.2,1.7,0.3C416.7,62,417.2,62,417.7,62z"/>
	<path class="st10" d="M526.2,66.3l7.7-18.6c0.1-0.2,0.2-0.3,0.4-0.3h15.2c0.3,0,0.6,0.4,0.4,0.7l-2.2,5.4c-0.2,0.4,0.2,0.9,0.6,0.7
		l19.2-6.8h0.1h8c0.5,0,0.6,0.8,0.1,1l-12.4,4.5c-0.3,0.1-0.4,0.5-0.2,0.8l8.9,12.5c0.2,0.3,0,0.8-0.4,0.8h-13.3
		c-0.2,0-0.3-0.1-0.4-0.2l-5.2-9.6c-0.1-0.2-0.3-0.3-0.5-0.2l-6.7,2.4c-0.1,0.1-0.2,0.2-0.3,0.3l-2.9,7.1c-0.1,0.2-0.2,0.3-0.4,0.3
		h-15.2C526.3,67.1,526.1,66.7,526.2,66.3z"/>
	<path class="st10" d="M450.4,47.2h35c0.7,0,1.2,0.9,0.9,1.8l-5.6,14c-0.9,2.4-2.9,4-5.1,4h-32.1c0,0-0.4,0-0.5-0.3
		c-0.2-0.4,0.1-1,0.1-1c0.3-1,1.7-1.6,2.5-1.6H462c2.8,0,5.3-2,6.4-5.1l2.7-6.9c0.1-0.3-0.1-0.7-0.4-0.7h-21.1
		c-0.6,0-1.1-0.7-0.9-1.5l0.8-1.9C449.7,47.5,450,47.2,450.4,47.2z"/>
	<path class="st10" d="M244.4,51c-0.5-0.8-1.4-1.5-2.7-2s-3-1-5-1.3s-4.2-0.4-6.7-0.4h-27.6c-0.2,0-0.3,0.1-0.4,0.3l-7.9,18.6
		c-0.1,0.3,0.1,0.7,0.4,0.7h15.4c0.2,0,0.3-0.1,0.4-0.3l1.9-4.5c0.1-0.2,0.2-0.3,0.4-0.3h10.9c0.2,0,0.3,0.1,0.4,0.3l2.6,4.7
		c0.1,0.2,0.2,0.3,0.4,0.3h13c0.4,0,0.6-0.5,0.4-0.8l-4.1-5.8c0.3-0.1,0.7-0.2,1.1-0.3c1.7-0.6,3.2-1.3,4.4-2.2s2-1.9,2.5-3l0.6-1.2
		C245,52.6,244.9,51.7,244.4,51z M215.4,54l1-2.5c0.1-0.2,0.2-0.3,0.5-0.3h12.2c0.3,0,0.6,0,0.9,0.1c0.3,0,0.4,0,0.7,0.1
		s0.4,0.2,0.5,0.4s0.3,0.5,0.2,0.9l-0.2,0.4c-0.1,0.3-0.3,0.5-0.7,0.7c-0.3,0.2-0.7,0.4-1,0.5c-0.4,0.1-0.7,0.2-1.1,0.3
		c-0.4,0.1-0.6,0.1-0.8,0.1h-11.9C215.4,54.6,215.3,54.3,215.4,54z"/>
	<path class="st10" d="M393.7,51c-0.5-0.8-1.4-1.5-2.7-2s-3-1-5-1.3s-4.2-0.4-6.7-0.4h-27.6c-0.2,0-0.3,0.1-0.4,0.3l-7.9,18.6
		c-0.1,0.3,0.1,0.7,0.4,0.7h15.4c0.2,0,0.3-0.1,0.4-0.3l1.9-4.5c0.1-0.2,0.2-0.3,0.4-0.3h10.9c0.2,0,0.3,0.1,0.4,0.3l2.6,4.7
		c0.1,0.2,0.2,0.3,0.4,0.3h13c0.4,0,0.6-0.5,0.4-0.8l-4.1-5.8c0.3-0.1,0.7-0.2,1.1-0.3c1.7-0.6,3.2-1.3,4.4-2.2c1.2-0.9,2-1.9,2.5-3
		l0.6-1.2C394.2,52.6,394.2,51.7,393.7,51z M364.7,54l1-2.5c0.1-0.2,0.2-0.3,0.5-0.3h12.2c0.3,0,0.6,0,0.9,0.1c0.3,0,0.4,0,0.7,0.1
		c0.3,0.1,0.4,0.2,0.5,0.4s0.3,0.5,0.2,0.9l-0.2,0.4c-0.1,0.3-0.3,0.5-0.7,0.7c-0.3,0.2-0.7,0.4-1,0.5c-0.4,0.1-0.7,0.2-1.1,0.3
		s-0.6,0.1-0.8,0.1H365C364.7,54.6,364.6,54.3,364.7,54z"/>
	<path class="st10" d="M345.2,51c-0.5-0.8-1.4-1.5-2.7-2c-1.3-0.6-3-1-5-1.3s-4.2-0.4-6.7-0.4h-27.6c-0.2,0-0.3,0.1-0.4,0.3
		l-7.9,18.6c-0.1,0.3,0.1,0.7,0.4,0.7h15.4c0.2,0,0.3-0.1,0.4-0.3l0.5-1.2l1.4-3.3c0.1-0.2,0.2-0.3,0.4-0.3h12
		c2.3,0,4.6-0.1,6.7-0.4c2.1-0.3,4.1-0.7,5.8-1.3c1.7-0.6,3.2-1.3,4.4-2.2c1.2-0.9,2-1.9,2.5-3l0.6-1.2
		C345.8,52.6,345.7,51.7,345.2,51z M332.5,52.7l-0.2,0.4c-0.1,0.3-0.3,0.5-0.7,0.7c-0.3,0.2-0.7,0.4-1,0.5c-0.4,0.1-0.7,0.2-1.1,0.3
		s-0.6,0.1-0.8,0.1h-11.9c-0.3,0-0.5-0.3-0.3-0.6l1-2.5c0.1-0.2,0.2-0.3,0.5-0.3h12.2c0.3,0,0.6,0,0.9,0.1c0.3,0,0.4,0,0.7,0.1
		c0.3,0.1,0.4,0.2,0.5,0.4C332.5,52,332.6,52.3,332.5,52.7z"/>
	<path class="st11" d="M38.4,15.4c-0.3,0.1-0.5,0.1-0.8,0.2v-0.1l3-7.2h57.1c0.1,0,0.2,0.1,0.1,0.2l-3.4,8.1
		c-3.1-2.1-8.1-4.5-20.4-4.5c-0.2,0-0.4,0-0.5,0C63.1,12.1,46.6,13.4,38.4,15.4z"/>
	<path class="st12" d="M54.9,29.3C46,33.6,35.4,31.1,32,28.9l-3.6,8.6c0,0.1,0,0.1,0,0.1c2.8,1.2,10.8,0.8,18.9-1.5
		c5.2-1.5,10.2-2.1,14.9-2.1c9.5,0,17.6,2.5,22.6,5.5l3.1-7.2l3.4-7.9c0-0.1,0-0.1,0-0.1C81.4,17.6,67.9,23.1,54.9,29.3z"/>
	<path class="st10" d="M93,19.6c-2.8-2-7.4-4.3-18.9-4.3h-0.6C60.6,15.4,43,17.4,36,19.5l-0.1,0.1c0,0-0.1,0-0.1,0.1
		c-0.5,1.1-2,4.8-2.6,6.2c0,0.1,0,0.1,0,0.1c2.2,1.4,9.1,2.2,12.9,2.2c2.4,0,4.9-0.6,7.4-1.8l2.2-1.1c5.7-2.7,16.4-7.3,25.1-7.3
		c4,0,8.3,1.2,11.5,3.3l0.6-1.6C93.1,19.6,93.1,19.6,93,19.6L93,19.6L93,19.6z"/>
	<path class="st10" d="M65.8,37.4c-6.6-0.4-11.2,0.1-18.2,2c-0.9,0.3-1.8,0.5-2.6,0.7c-2.9,0.8-5.2,1.5-7.7,1.5
		c-2.7,0-8.5-0.2-10.2-1l-2.6,6.2v0.1c2.2,1.8,10.5,4,14.5,4.5c1.1,0.2,2.1,0.3,3.2,0.5l3-7.4c0.2-0.4,0.5-0.6,0.9-0.6h15.7H83
		l0.2-0.4l0,0c0,0,0-0.1,0.3-0.6c0-0.1,0.1-0.2-0.1-0.4C79.3,39.6,71,37.7,65.8,37.4z"/>
	<path class="st10" d="M18.7,60.1l-1.8,4.4c-1.4,3.6-3.7,8.9-4.5,11c0,0,0,0,0,0.1l-4,9.5c0,0.1,0,0.1,0,0.1h38.5v-0.1
		C36.4,69.6,24.1,62.9,18.7,60.1z"/>
	<path class="st12" d="M36.1,66.6l4.6-11.2v-0.1c-1.1-0.2-2.1-0.4-3.1-0.5c-3.3-0.4-11.5-2-14.7-4.5L20.3,57c0,0.1,0,0.1,0,0.1
		C25.9,60.2,31.2,62.2,36.1,66.6z"/>
	<path class="st12" d="M61.9,70.9c-0.2-0.3-0.6-0.5-1-0.5H40.1v0.1C41.5,72,48.8,80.8,51,84.8c0.1,0.2,0.3,0.3,0.4,0.3h13.9
		c0.2,0,0.4-0.1,0.4-0.3l2.3-5.7c0.1-0.2,0.1-0.5,0-0.6C67.7,77.9,63.2,72.6,61.9,70.9z"/>
	<path class="st10" d="M66.5,70.3l3.5,4.4l1.5-3.6c0.2-0.4-0.2-0.9-0.6-0.9L66.5,70.3z"/>
	<path class="st9" d="M109.2,47.2L82.8,47c-0.3,0.1-0.3,0.1-0.6,0.4L78,51.1c-0.2,0.2-0.6,0.1-0.7-0.1l-2.2-3.6
		C75,47.1,74.9,47,74.7,47l-26.5,0.2c-0.2,0-0.3,0.1-0.4,0.3l-7.7,18.8C40,66.6,40.2,67,40.5,67H58c0.2,0,0.4-0.1,0.5-0.3l1.6-4.2
		c0.2-0.5,0.3-0.6,0.6-0.3l0,0l3.6,4.7c0.1,0.1,0.2,0.2,0.4,0.2h14.9c0.3,0,0.6-0.1,0.8-0.3l4.7-4.1c0.5-0.4,0.5,0.2,0.5,0.2v3.4
		c0,0.5,0.3,0.8,0.7,0.8l16.3-0.1c0.2,0,0.3-0.1,0.4-0.3l7.7-18.8C110.8,47.6,110.5,47.2,109.2,47.2z"/>
</g>
<g class="st13">
	<path class="st9" d="M128.1,21.3c0.9,0.3,1.5,0.8,2,1.5c0.5,0.7,0.7,1.4,0.7,2.3c0,1.4-0.5,2.5-1.4,3.3c-0.9,0.8-2.3,1.2-4.1,1.2
		H118V13.9h7.1c1.6,0,2.9,0.4,3.8,1.1c0.9,0.7,1.3,1.7,1.3,2.9C130.2,19.5,129.5,20.6,128.1,21.3z M124.9,16.3H121v4.1h3.9
		c0.7,0,1.3-0.2,1.7-0.6c0.4-0.4,0.6-0.9,0.6-1.6c0-0.6-0.2-1.1-0.6-1.5C126.2,16.5,125.6,16.3,124.9,16.3z M121,27.1h4.2
		c0.8,0,1.5-0.2,1.9-0.6s0.7-0.9,0.7-1.6c0-1.5-0.9-2.2-2.6-2.2H121V27.1z"/>
	<path class="st9" d="M135.1,29.5h-2.8V18.2h2.8V29.5z M135.1,16.7h-2.7v-2.6h2.7V16.7z"/>
	<path class="st9" d="M144.8,24.6v-6.4h2.8v11.3h-2.7v-1.6c-0.9,1.3-2.1,1.9-3.6,1.9c-1.2,0-2.2-0.4-2.9-1.1c-0.7-0.7-1.1-1.7-1.1-3
		v-7.5h2.8v7.1c0,1.4,0.7,2.2,2.1,2.2c0.7,0,1.3-0.3,1.8-0.8S144.8,25.4,144.8,24.6z"/>
	<path class="st9" d="M155.9,18c0.2,0,0.5,0,0.7,0v2.6h-0.7c-1.1,0-1.9,0.3-2.4,0.8s-0.8,1.3-0.8,2.4v5.8h-2.8V18.2h2.7v2
		C153.1,18.8,154.3,18,155.9,18z"/>
	<path class="st9" d="M167,28.2c-1.1,1.1-2.4,1.6-4.2,1.6c-1.7,0-3.1-0.5-4.2-1.6c-1.1-1.1-1.6-2.5-1.6-4.3c0-1.8,0.5-3.2,1.6-4.3
		c1.1-1.1,2.4-1.6,4.2-1.6c1.7,0,3.1,0.5,4.2,1.6c1.1,1.1,1.6,2.5,1.6,4.3C168.6,25.7,168.1,27.1,167,28.2z M160.7,26.6
		c0.5,0.6,1.2,0.9,2.2,0.9c0.9,0,1.6-0.3,2.2-1c0.5-0.6,0.8-1.5,0.8-2.7c0-1.2-0.3-2.1-0.8-2.7c-0.5-0.6-1.2-1-2.2-1
		c-0.9,0-1.6,0.3-2.2,0.9c-0.5,0.6-0.8,1.5-0.8,2.7C159.9,25,160.2,25.9,160.7,26.6z"/>
	<path class="st9" d="M175.2,13.9h6.9c1.7,0,3.1,0.5,4.1,1.4c1,0.9,1.5,2.2,1.5,3.7c0,1.6-0.5,2.8-1.5,3.7c-1,0.9-2.3,1.4-4.1,1.4
		h-3.9v5.5h-3V13.9z M178.2,21.5h3.8c0.9,0,1.5-0.2,2-0.6s0.7-1.1,0.7-1.9c0-0.8-0.2-1.5-0.7-1.9c-0.5-0.4-1.1-0.7-2-0.7h-3.8V21.5z
		"/>
	<path class="st9" d="M195.3,18c0.2,0,0.5,0,0.7,0v2.6h-0.7c-1.1,0-1.9,0.3-2.4,0.8s-0.8,1.3-0.8,2.4v5.8h-2.8V18.2h2.7v2
		C192.5,18.8,193.7,18,195.3,18z"/>
	<path class="st9" d="M206.4,28.2c-1.1,1.1-2.4,1.6-4.2,1.6c-1.7,0-3.1-0.5-4.2-1.6c-1.1-1.1-1.6-2.5-1.6-4.3c0-1.8,0.5-3.2,1.6-4.3
		c1.1-1.1,2.4-1.6,4.2-1.6c1.7,0,3.1,0.5,4.2,1.6c1.1,1.1,1.6,2.5,1.6,4.3C208,25.7,207.5,27.1,206.4,28.2z M200.1,26.6
		c0.5,0.6,1.2,0.9,2.2,0.9c0.9,0,1.6-0.3,2.2-1c0.5-0.6,0.8-1.5,0.8-2.7c0-1.2-0.3-2.1-0.8-2.7c-0.5-0.6-1.2-1-2.2-1
		c-0.9,0-1.6,0.3-2.2,0.9c-0.5,0.6-0.8,1.5-0.8,2.7C199.3,25,199.6,25.9,200.1,26.6z"/>
	<path class="st9" d="M209.2,33.9c-0.1,0-0.4,0-1.1,0v-2.2h0.5c0.7,0,1.1-0.3,1.1-1V18.2h2.8V31c0,1-0.3,1.7-0.8,2.2
		C211.2,33.7,210.3,33.9,209.2,33.9z M212.5,16.7h-2.7v-2.6h2.7V16.7z"/>
	<path class="st9" d="M225.5,24.1v0.7H217c0.1,1,0.4,1.7,0.9,2.2c0.5,0.5,1.2,0.7,2,0.7c1.3,0,2.1-0.5,2.6-1.6h2.7
		c-0.3,1.2-0.9,2.1-1.8,2.8c-0.9,0.7-2.1,1-3.4,1c-1.7,0-3-0.5-4.1-1.6c-1-1.1-1.6-2.5-1.6-4.3c0-1.8,0.5-3.2,1.5-4.3
		c1-1.1,2.4-1.6,4.1-1.6c1.7,0,3.1,0.6,4.1,1.7S225.5,22.2,225.5,24.1z M219.9,20.1c-1.6,0-2.6,0.9-2.8,2.7h5.7
		c-0.1-0.8-0.4-1.5-0.9-2C221.3,20.3,220.7,20.1,219.9,20.1z"/>
	<path class="st9" d="M238.2,29.5H235l-3.3-5.3L230,26v3.6h-2.7V13.9h2.7v9l4.6-4.7h3.3l-4.3,4.3L238.2,29.5z"/>
	<path class="st9" d="M245.1,18.2v2.1h-2.2v6.1c0,0.4,0.1,0.6,0.3,0.8s0.5,0.2,1,0.2h0.9v2.1c-0.6,0.1-1.1,0.1-1.5,0.1
		c-1.2,0-2.1-0.2-2.7-0.7s-0.8-1.2-0.8-2.2v-6.4h-1.8v-2.1h1.8v-3.3h2.7v3.3H245.1z"/>
	<path class="st9" d="M255.9,28.2c-1.1,1.1-2.4,1.6-4.2,1.6c-1.7,0-3.1-0.5-4.2-1.6c-1.1-1.1-1.6-2.5-1.6-4.3c0-1.8,0.5-3.2,1.6-4.3
		c1.1-1.1,2.4-1.6,4.2-1.6c1.7,0,3.1,0.5,4.2,1.6c1.1,1.1,1.6,2.5,1.6,4.3C257.5,25.7,257,27.1,255.9,28.2z M249.6,26.6
		c0.5,0.6,1.2,0.9,2.2,0.9c0.9,0,1.6-0.3,2.2-1c0.5-0.6,0.8-1.5,0.8-2.7c0-1.2-0.3-2.1-0.8-2.7c-0.5-0.6-1.2-1-2.2-1
		c-0.9,0-1.6,0.3-2.2,0.9c-0.5,0.6-0.8,1.5-0.8,2.7C248.8,25,249.1,25.9,249.6,26.6z M253,16.7h-2.3l1.9-3.2h3.2L253,16.7z"/>
	<path class="st9" d="M271.4,22.4l1.3-4.2h3l-3.7,11.3H269l-1.4-4.7c-0.5-1.9-0.9-3-1-3.4c0,0.2-0.4,1.3-0.9,3.4l-1.4,4.7h-2.9
		l-3.7-11.3h3l1.3,4.2c0.3,1,0.7,2.3,1.1,3.9c0.4-1.6,0.8-2.9,1.1-4l1.3-4.2h2.6l1.3,4.2c0.3,1,0.7,2.3,1.1,4
		C270.7,24.9,271.1,23.6,271.4,22.4z"/>
</g>
<g class="st13">
	<path class="st9" d="M492.5,95.3c-3.3,0-5-1.3-5.2-3.9h2.7c0.1,0.7,0.3,1.2,0.7,1.5c0.4,0.3,1,0.4,1.8,0.4c1.5,0,2.2-0.5,2.2-1.4
		c0-0.4-0.2-0.7-0.5-0.9s-0.9-0.4-1.7-0.5l-1.3-0.2c-2.5-0.4-3.7-1.6-3.7-3.4c0-1.1,0.4-1.9,1.2-2.5s2-0.9,3.5-0.9
		c3.2,0,4.9,1.3,5,3.8h-2.6c0-0.7-0.2-1.2-0.6-1.4c-0.4-0.3-1-0.4-1.8-0.4c-1.3,0-2,0.4-2,1.3c0,0.4,0.1,0.7,0.4,0.9
		c0.3,0.2,0.8,0.4,1.5,0.5l1.4,0.2c1.4,0.2,2.4,0.6,3,1.2c0.6,0.5,0.9,1.3,0.9,2.3c0,1.1-0.4,2-1.3,2.6
		C495.4,94.9,494.1,95.3,492.5,95.3z"/>
	<path class="st9" d="M505.3,83.3c1.6,0,2.8,0.5,3.7,1.6c0.9,1.1,1.4,2.5,1.4,4.3c0,1.8-0.5,3.2-1.4,4.3c-0.9,1.1-2.2,1.6-3.7,1.6
		c-1.5,0-2.7-0.6-3.5-1.7v5.8H499V83.6h2.7v1.6C502.5,84,503.7,83.3,505.3,83.3z M502.5,92c0.5,0.6,1.2,0.9,2.1,0.9
		c0.9,0,1.6-0.3,2.2-1c0.5-0.6,0.8-1.6,0.8-2.7c0-1.2-0.3-2-0.8-2.6s-1.2-0.9-2.2-0.9c-0.9,0-1.6,0.3-2.2,0.9
		c-0.5,0.6-0.8,1.5-0.8,2.7C501.7,90.5,502,91.4,502.5,92z"/>
	<path class="st9" d="M521.6,93.6c-1.1,1.1-2.4,1.6-4.2,1.6c-1.7,0-3.1-0.5-4.2-1.6c-1.1-1.1-1.6-2.5-1.6-4.3c0-1.8,0.5-3.2,1.6-4.3
		c1.1-1.1,2.4-1.6,4.2-1.6c1.7,0,3.1,0.5,4.2,1.6c1.1,1.1,1.6,2.5,1.6,4.3C523.2,91.1,522.6,92.5,521.6,93.6z M515.2,92
		c0.5,0.6,1.2,0.9,2.2,0.9s1.6-0.3,2.2-1s0.8-1.5,0.8-2.7c0-1.2-0.3-2.1-0.8-2.7s-1.2-1-2.2-1s-1.6,0.3-2.2,0.9
		c-0.5,0.6-0.8,1.5-0.8,2.7C514.5,90.4,514.7,91.3,515.2,92z M518.6,82.1h-2.3l1.9-3.2h3.2L518.6,82.1z"/>
	<path class="st9" d="M528.7,85.4l1.8-0.9v2l-1.8,0.9v7.5H526v-6.2l-1.8,0.9v-2l1.8-0.9v-7.5h2.7V85.4z"/>
	<path class="st9" d="M542.5,94.9h-3.2l-3.3-5.3l-1.7,1.7v3.6h-2.7V79.3h2.7v9l4.6-4.7h3.3l-4.3,4.3L542.5,94.9z"/>
	<path class="st9" d="M553.4,94.9h-2.8c-0.1-0.2-0.2-0.7-0.3-1.4c-0.8,1.1-2,1.6-3.7,1.6c-1.2,0-2.2-0.3-3-0.9
		c-0.7-0.6-1.1-1.4-1.1-2.5c0-2.1,1.5-3.2,4.4-3.5l1.7-0.2c0.6-0.1,1-0.2,1.2-0.4c0.2-0.2,0.4-0.5,0.4-0.9c0-0.5-0.2-0.8-0.5-1.1
		c-0.3-0.2-0.8-0.3-1.6-0.3c-0.8,0-1.4,0.1-1.7,0.4s-0.6,0.7-0.6,1.4h-2.7c0.2-2.6,1.9-3.9,5.1-3.9c3.2,0,4.7,1.1,4.7,3.4v6
		C552.9,93.8,553.1,94.5,553.4,94.9z M547.3,93.2c0.9,0,1.6-0.2,2.1-0.7c0.5-0.5,0.8-1.2,0.8-2.1v-1c-0.3,0.2-0.7,0.4-1.3,0.5
		l-1.5,0.2c-0.7,0.1-1.3,0.3-1.6,0.5c-0.3,0.3-0.5,0.6-0.5,1.1c0,0.5,0.2,0.9,0.5,1.1S546.7,93.2,547.3,93.2z"/>
	<path class="st9" d="M565.1,92.8h3.8v2.2h-9.6v-1.8l4.5-5.7c0.2-0.2,0.5-0.6,0.8-0.9c0.3-0.4,0.5-0.6,0.6-0.8c-0.4,0-1.1,0-2.3,0
		h-3.5v-2.2h9.3v1.8l-4.5,5.7c-0.2,0.2-0.5,0.6-0.8,0.9c-0.3,0.4-0.5,0.6-0.6,0.8C563.1,92.8,563.9,92.8,565.1,92.8z"/>
	<path class="st9" d="M584.9,93.6c-1.1,1.1-2.4,1.6-4.2,1.6c-1.7,0-3.1-0.5-4.2-1.6c-1.1-1.1-1.6-2.5-1.6-4.3c0-1.8,0.5-3.2,1.6-4.3
		c1.1-1.1,2.4-1.6,4.2-1.6c1.7,0,3.1,0.5,4.2,1.6c1.1,1.1,1.6,2.5,1.6,4.3C586.5,91.1,586,92.5,584.9,93.6z M578.6,92
		c0.5,0.6,1.2,0.9,2.2,0.9s1.6-0.3,2.2-1s0.8-1.5,0.8-2.7c0-1.2-0.3-2.1-0.8-2.7s-1.2-1-2.2-1s-1.6,0.3-2.2,0.9
		c-0.5,0.6-0.8,1.5-0.8,2.7C577.8,90.4,578.1,91.3,578.6,92z"/>
	<path class="st9" d="M590.6,94.9h-3.2v-3.1h3.2V94.9z"/>
	<path class="st9" d="M601.4,93.6c-1.1,1.1-2.4,1.6-4.2,1.6c-1.7,0-3.1-0.5-4.2-1.6c-1.1-1.1-1.6-2.5-1.6-4.3c0-1.8,0.5-3.2,1.6-4.3
		c1.1-1.1,2.4-1.6,4.2-1.6c1.7,0,3.1,0.5,4.2,1.6c1.1,1.1,1.6,2.5,1.6,4.3C603,91.1,602.5,92.5,601.4,93.6z M595.1,92
		c0.5,0.6,1.2,0.9,2.2,0.9c0.9,0,1.6-0.3,2.2-1c0.5-0.6,0.8-1.5,0.8-2.7c0-1.2-0.3-2.1-0.8-2.7c-0.5-0.6-1.2-1-2.2-1
		c-0.9,0-1.6,0.3-2.2,0.9c-0.5,0.6-0.8,1.5-0.8,2.7C594.3,90.4,594.6,91.3,595.1,92z"/>
	<path class="st9" d="M607.1,94.9h-3.2v-3.1h3.2V94.9z"/>
</g>
</svg>
